<svg xmlns="http://www.w3.org/2000/svg" xmlns:xlink="http://www.w3.org/1999/xlink" width="500" zoomAndPan="magnify" viewBox="0 0 375 374.999991" height="500" preserveAspectRatio="xMidYMid meet" version="1.0"><defs><g/></defs><g fill="#ffa7e4" fill-opacity="1"><g transform="translate(130.010504, 233.361527)"><g><path d="M 33.449219 -25.007812 C 32.742188 -25.007812 32.1875 -24.457031 32.1875 -23.746094 C 32.1875 -21.0625 29.742188 -18.699219 26.980469 -18.699219 C 24.0625 -18.699219 21.773438 -21.0625 21.773438 -23.746094 L 21.773438 -39.367188 C 21.773438 -43.152344 25.796875 -46.152344 30.058594 -43.707031 C 31.242188 -42.996094 32.1875 -41.261719 32.1875 -39.839844 L 32.1875 -39.445312 C 32.1875 -38.816406 32.742188 -38.183594 33.449219 -38.183594 L 51.4375 -38.183594 C 51.988281 -38.183594 52.542969 -38.734375 52.542969 -39.367188 L 52.542969 -40.789062 C 52.542969 -53.726562 40.15625 -64.140625 26.980469 -64.140625 C 14.042969 -64.140625 1.339844 -53.726562 1.339844 -40.789062 L 1.339844 -22.957031 C 1.339844 -9.546875 14.042969 0.945312 26.980469 0.945312 C 40.15625 0.945312 52.542969 -9.546875 52.542969 -22.957031 L 52.542969 -23.90625 C 52.542969 -24.457031 51.988281 -25.007812 51.4375 -25.007812 Z M 33.449219 -25.007812 "/></g></g></g><g fill="#ffa7e4" fill-opacity="1"><g transform="translate(183.892761, 233.361527)"><g><path d="M 39.128906 -21.300781 L 23.746094 -21.300781 L 23.746094 -56.722656 C 23.746094 -60.117188 20.75 -63.113281 17.515625 -63.113281 L 8.363281 -63.113281 C 4.96875 -63.113281 2.601562 -60.117188 2.601562 -56.722656 L 2.601562 -5.207031 C 2.601562 -2.367188 4.417969 0 7.808594 0 L 39.128906 0 C 42.050781 0 44.417969 -2.367188 44.417969 -5.207031 L 44.417969 -15.777344 C 44.417969 -18.699219 42.050781 -21.300781 39.128906 -21.300781 Z M 39.128906 -21.300781 "/></g></g></g><g fill="#ffa7e4" fill-opacity="1"><g transform="translate(230.911537, 233.361527)"><g><path d="M 48.046875 -62.957031 L 35.582031 -62.957031 C 33.054688 -62.957031 31.003906 -60.746094 31.003906 -58.222656 L 31.003906 -22.40625 C 31.003906 -20.511719 29.425781 -19.011719 27.535156 -19.011719 C 25.71875 -19.011719 24.140625 -20.511719 24.140625 -22.40625 L 24.140625 -60.039062 C 24.140625 -61.613281 22.878906 -62.878906 21.378906 -62.878906 L 4.101562 -62.878906 C 2.601562 -62.878906 1.339844 -61.613281 1.339844 -60.039062 L 1.339844 -22.5625 C 1.339844 -9.308594 13.726562 1.5 26.980469 1.5 C 40 1.5 52.148438 -8.679688 52.699219 -21.539062 L 52.699219 -58.222656 C 52.699219 -60.746094 50.570312 -62.957031 48.046875 -62.957031 Z M 48.046875 -62.957031 "/></g></g></g><g fill="#ffa7e4" fill-opacity="1"><g transform="translate(284.951574, 233.361527)"><g><path d="M 43.707031 -31.558594 C 44.417969 -32.265625 49.464844 -36.210938 49.464844 -46.390625 C 49.464844 -50.414062 48.125 -54.59375 45.601562 -57.511719 C 42.839844 -60.746094 39.210938 -62.878906 34.082031 -62.878906 L 8.203125 -62.878906 C 5.917969 -62.878906 4.574219 -61.695312 3.550781 -60.351562 C 2.523438 -58.933594 2.601562 -57.433594 2.601562 -57.433594 L 2.601562 -5.601562 C 2.601562 -5.285156 2.601562 -3.707031 3.867188 -2.289062 C 4.417969 -1.578125 5.757812 -0.238281 8.203125 -0.238281 L 18.222656 -0.238281 L 34.316406 -0.15625 C 38.734375 -0.15625 42.601562 -2.289062 45.363281 -5.445312 C 47.886719 -8.363281 49.542969 -13.175781 49.542969 -16.644531 C 49.78125 -25.480469 45.046875 -30.453125 43.707031 -31.558594 Z M 30.6875 -46.625 L 30.6875 -45.601562 C 30.6875 -43.863281 29.347656 -42.523438 27.535156 -42.523438 L 22.800781 -42.523438 C 22.246094 -42.523438 21.933594 -42.839844 21.933594 -43.3125 L 21.933594 -48.835938 C 21.933594 -49.308594 22.246094 -49.703125 22.800781 -49.703125 L 27.535156 -49.703125 C 29.347656 -49.703125 30.6875 -48.28125 30.6875 -46.625 Z M 30.6875 -20.195312 L 30.6875 -17.910156 C 30.6875 -16.171875 29.347656 -14.753906 27.535156 -14.753906 L 22.800781 -14.753906 C 22.246094 -14.753906 21.933594 -15.226562 21.933594 -15.621094 L 21.933594 -22.5625 C 21.933594 -23.035156 22.246094 -23.351562 22.800781 -23.351562 L 27.535156 -23.351562 C 29.347656 -23.351562 30.6875 -22.011719 30.6875 -20.195312 Z M 30.6875 -20.195312 "/></g></g></g><path stroke-linecap="butt" transform="matrix(0.75, 0, 0, 0.75, 38.551405, 169.140574)" fill="none" stroke-linejoin="miter" d="M 170.171028 49.666729 C 169.217903 49.666729 168.473111 50.385479 168.473111 51.333396 C 168.473111 54.906312 165.212695 58.062562 161.54082 58.062562 C 157.639779 58.062562 154.582488 54.906312 154.582488 51.333396 L 154.582488 30.505273 C 154.582488 25.447982 159.947071 21.468815 165.650195 24.729232 C 167.217903 25.677148 168.473111 27.989648 168.473111 29.89069 L 168.473111 30.406314 C 168.473111 31.250064 169.217903 32.099023 170.171028 32.099023 L 194.155401 32.099023 C 194.874151 32.099023 195.618942 31.354231 195.618942 30.505273 L 195.618942 28.60944 C 195.618942 11.375066 179.108527 -2.520766 161.54082 -2.520766 C 144.285614 -2.520766 127.358532 11.375066 127.358532 28.60944 L 127.358532 52.385479 C 127.358532 70.260477 144.285614 84.260476 161.54082 84.260476 C 179.108527 84.260476 195.618942 70.260477 195.618942 52.385479 L 195.618942 51.130271 C 195.618942 50.385479 194.874151 49.666729 194.155401 49.666729 Z M 249.587687 54.599021 L 229.072064 54.599021 L 229.072064 7.369858 C 229.072064 2.849025 225.061648 -1.156183 220.749148 -1.156183 L 208.551233 -1.156183 C 204.0304 -1.156183 200.87415 2.849025 200.87415 7.369858 L 200.87415 76.067769 C 200.87415 79.84381 203.285608 83.00006 207.832483 83.00006 L 249.587687 83.00006 C 253.467895 83.00006 256.624145 79.84381 256.624145 76.067769 L 256.624145 61.968811 C 256.624145 58.062562 253.467895 54.599021 249.587687 54.599021 Z M 324.144972 -0.953058 L 307.53039 -0.953058 C 304.165807 -0.953058 301.441849 2.000067 301.441849 5.36465 L 301.441849 53.130271 C 301.441849 55.651104 299.337682 57.651104 296.822058 57.651104 C 294.37935 57.651104 292.275183 55.651104 292.275183 53.130271 L 292.275183 2.953192 C 292.275183 0.843817 290.608517 -0.848891 288.603308 -0.848891 L 265.566852 -0.848891 C 263.561644 -0.848891 261.894978 0.843817 261.894978 2.953192 L 261.894978 52.927146 C 261.894978 70.593811 278.405393 85.005268 296.077266 85.005268 C 313.436639 85.005268 329.613721 71.416727 330.358513 54.286521 L 330.358513 5.36465 C 330.358513 2.000067 327.535596 -0.953058 324.144972 -0.953058 Z M 390.421007 40.932355 C 391.368924 39.984439 398.09809 34.718814 398.09809 21.161524 C 398.09809 15.791733 396.327257 10.218816 392.936632 6.317775 C 389.264757 2.000067 384.436633 -0.848891 377.582467 -0.848891 L 343.092887 -0.848891 C 340.035595 -0.848891 338.264762 0.744859 336.874137 2.541734 C 335.514762 4.416734 335.618929 6.416733 335.618929 6.416733 L 335.618929 75.526102 C 335.618929 75.963602 335.618929 78.041727 337.311637 79.942768 C 338.030387 80.895893 339.827262 82.692768 343.092887 82.692768 L 356.447052 82.692768 L 377.9158 82.796935 C 383.796008 82.796935 388.957466 79.942768 392.62934 75.734435 C 395.993923 71.854227 398.202256 65.432353 398.202256 60.812562 C 398.53559 49.026104 392.217882 42.395897 390.421007 40.932355 Z M 373.061634 20.82819 L 373.061634 22.213607 C 373.061634 24.526107 371.290801 26.29694 368.874134 26.29694 L 362.556426 26.29694 C 361.811635 26.29694 361.400177 25.885482 361.400177 25.244857 L 361.400177 17.895899 C 361.400177 17.255274 361.811635 16.744857 362.556426 16.744857 L 368.874134 16.744857 C 371.290801 16.744857 373.061634 18.619857 373.061634 20.82819 Z M 373.061634 56.062562 L 373.061634 59.114645 C 373.061634 61.427145 371.290801 63.328186 368.874134 63.328186 L 362.556426 63.328186 C 361.811635 63.328186 361.400177 62.687561 361.400177 62.171936 L 361.400177 52.927146 C 361.400177 52.286521 361.811635 51.875062 362.556426 51.875062 L 368.874134 51.875062 C 371.290801 51.875062 373.061634 53.645896 373.061634 56.062562 Z M 373.061634 56.062562 " stroke="#ff66c4" stroke-width="1.709468" stroke-opacity="1" stroke-miterlimit="4"/><g fill="#5ce1e6" fill-opacity="1"><g transform="translate(79.966377, 156.910739)"><g><path d="M 43.707031 -31.558594 C 44.417969 -32.269531 49.46875 -36.214844 49.46875 -46.390625 C 49.46875 -50.414062 48.125 -54.597656 45.601562 -57.515625 C 42.839844 -60.75 39.210938 -62.878906 34.082031 -62.878906 L 8.207031 -62.878906 C 5.917969 -62.878906 4.574219 -61.695312 3.550781 -60.355469 C 2.523438 -58.933594 2.605469 -57.4375 2.605469 -57.4375 L 2.605469 -5.601562 C 2.605469 -5.285156 2.605469 -3.707031 3.867188 -2.289062 C 4.417969 -1.578125 5.757812 -0.238281 8.207031 -0.238281 L 18.226562 -0.238281 L 34.320312 -0.15625 C 38.738281 -0.15625 42.605469 -2.289062 45.363281 -5.445312 C 47.890625 -8.363281 49.546875 -13.175781 49.546875 -16.648438 C 49.785156 -25.484375 45.050781 -30.453125 43.707031 -31.558594 Z M 30.691406 -46.628906 L 30.691406 -45.601562 C 30.691406 -43.867188 29.347656 -42.523438 27.535156 -42.523438 L 22.800781 -42.523438 C 22.25 -42.523438 21.933594 -42.839844 21.933594 -43.3125 L 21.933594 -48.835938 C 21.933594 -49.308594 22.25 -49.703125 22.800781 -49.703125 L 27.535156 -49.703125 C 29.347656 -49.703125 30.691406 -48.285156 30.691406 -46.628906 Z M 30.691406 -20.199219 L 30.691406 -17.910156 C 30.691406 -16.171875 29.347656 -14.753906 27.535156 -14.753906 L 22.800781 -14.753906 C 22.25 -14.753906 21.933594 -15.226562 21.933594 -15.621094 L 21.933594 -22.5625 C 21.933594 -23.039062 22.25 -23.351562 22.800781 -23.351562 L 27.535156 -23.351562 C 29.347656 -23.351562 30.691406 -22.011719 30.691406 -20.199219 Z M 30.691406 -20.199219 "/></g></g></g><g fill="#5ce1e6" fill-opacity="1"><g transform="translate(130.850226, 156.910739)"><g><path d="M 27.0625 -64.0625 C 14.121094 -64.0625 1.339844 -53.648438 1.339844 -40.632812 L 1.339844 -22.644531 C 1.339844 -9.152344 14.121094 1.339844 27.0625 1.339844 C 40.316406 1.339844 52.78125 -9.152344 52.78125 -22.644531 L 52.78125 -40.632812 C 52.78125 -53.648438 40.316406 -64.0625 27.0625 -64.0625 Z M 32.347656 -23.433594 C 32.347656 -20.75 29.902344 -18.382812 27.0625 -18.382812 C 24.140625 -18.382812 21.855469 -20.75 21.855469 -23.433594 L 21.855469 -39.210938 C 21.855469 -42.050781 24.140625 -44.417969 27.0625 -44.417969 C 29.902344 -44.417969 32.347656 -42.050781 32.347656 -39.210938 Z M 32.347656 -23.433594 "/></g></g></g><g fill="#5ce1e6" fill-opacity="1"><g transform="translate(184.96855, 156.910739)"><g><path d="M 27.0625 -64.0625 C 14.121094 -64.0625 1.339844 -53.648438 1.339844 -40.632812 L 1.339844 -22.644531 C 1.339844 -9.152344 14.121094 1.339844 27.0625 1.339844 C 40.316406 1.339844 52.78125 -9.152344 52.78125 -22.644531 L 52.78125 -40.632812 C 52.78125 -53.648438 40.316406 -64.0625 27.0625 -64.0625 Z M 32.347656 -23.433594 C 32.347656 -20.75 29.902344 -18.382812 27.0625 -18.382812 C 24.140625 -18.382812 21.855469 -20.75 21.855469 -23.433594 L 21.855469 -39.210938 C 21.855469 -42.050781 24.140625 -44.417969 27.0625 -44.417969 C 29.902344 -44.417969 32.347656 -42.050781 32.347656 -39.210938 Z M 32.347656 -23.433594 "/></g></g></g><g fill="#5ce1e6" fill-opacity="1"><g transform="translate(239.086875, 156.910739)"><g><path d="M 52.859375 -4.574219 L 44.339844 -30.296875 L 53.175781 -57.75 C 53.332031 -58.226562 53.414062 -58.539062 53.414062 -59.015625 C 53.414062 -60.988281 51.753906 -62.5625 49.785156 -62.5625 L 35.898438 -62.5625 C 34.160156 -62.5625 32.976562 -61.460938 32.269531 -59.015625 C 32.269531 -59.015625 28.953125 -48.441406 27.613281 -44.890625 C 27.375 -44.417969 27.0625 -43.394531 26.824219 -42.839844 C 26.746094 -42.523438 26.585938 -42.128906 26.429688 -41.734375 C 26.273438 -41.261719 25.800781 -40.945312 25.167969 -40.945312 C 24.773438 -40.945312 23.746094 -41.261719 23.746094 -42.210938 L 23.746094 -59.171875 C 23.746094 -61.144531 22.089844 -62.800781 20.117188 -62.800781 L 6.234375 -62.800781 C 4.261719 -62.800781 2.605469 -61.144531 2.605469 -59.171875 L 2.605469 -3.472656 C 2.605469 -1.5 4.261719 0.078125 6.234375 0.078125 L 20.117188 0.078125 C 22.089844 0.078125 23.746094 -1.5 23.746094 -3.472656 L 23.746094 -19.171875 C 23.746094 -19.804688 24.300781 -20.277344 24.773438 -20.355469 C 25.246094 -20.511719 25.957031 -20.277344 26.195312 -19.488281 C 27.0625 -17.121094 28.007812 -14.4375 32.109375 -2.050781 C 32.191406 -1.816406 33.058594 0.078125 35.265625 0.078125 L 49.941406 0.078125 C 50.964844 0 51.835938 -0.550781 52.464844 -1.421875 C 53.019531 -2.289062 53.175781 -3.472656 52.859375 -4.574219 Z M 52.859375 -4.574219 "/></g></g></g><path stroke-linecap="butt" transform="matrix(0.411688, 0, 0, 0.411688, 38.551405, 91.951576)" fill="none" stroke-linejoin="miter" d="M 213.3448 76.366278 C 215.081174 74.629904 227.340166 65.037147 227.340166 40.338884 C 227.340166 30.55636 224.104627 20.403789 217.937178 13.29699 C 211.238379 5.431119 202.442647 0.240973 189.955933 0.240973 L 127.114366 0.240973 C 121.554173 0.240973 118.318634 3.144419 115.794724 6.417911 C 113.318256 9.833729 113.508024 13.477269 113.508024 13.477269 L 113.508024 139.388124 C 113.508024 140.17566 113.508024 143.971014 116.591748 147.434274 C 117.901145 149.16116 121.174638 152.434652 127.114366 152.434652 L 151.452071 152.434652 L 190.56319 152.62442 C 201.275575 152.62442 210.678564 147.434274 217.367875 139.758171 C 223.497371 132.698814 227.520446 120.999636 227.520446 112.573951 C 228.127702 91.101738 216.618292 79.032514 213.3448 76.366278 Z M 181.720016 39.731627 L 181.720016 42.255537 C 181.720016 46.46838 178.493965 49.694431 174.091355 49.694431 L 162.581946 49.694431 C 161.225107 49.694431 160.475524 48.944848 160.475524 47.777777 L 160.475524 34.399156 C 160.475524 33.222596 161.225107 32.292734 162.581946 32.292734 L 174.091355 32.292734 C 178.493965 32.292734 181.720016 35.708553 181.720016 39.731627 Z M 181.720016 103.920545 L 181.720016 109.490226 C 181.720016 113.703069 178.493965 117.156841 174.091355 117.156841 L 162.581946 117.156841 C 161.225107 117.156841 160.475524 115.989769 160.475524 115.059908 L 160.475524 98.208538 C 160.475524 97.041467 161.225107 96.291884 162.581946 96.291884 L 174.091355 96.291884 C 178.493965 96.291884 181.720016 99.517935 181.720016 103.920545 Z M 296.519974 -2.61503 C 265.084958 -2.61503 234.057942 22.699978 234.057942 54.324762 L 234.057942 97.980817 C 234.057942 130.772672 265.084958 156.277448 296.519974 156.277448 C 328.714061 156.277448 358.982006 130.772672 358.982006 97.980817 L 358.982006 54.324762 C 358.982006 22.699978 328.714061 -2.61503 296.519974 -2.61503 Z M 309.338781 96.064163 C 309.338781 102.611148 303.399052 108.361109 296.519974 108.361109 C 289.413174 108.361109 283.890935 102.611148 283.890935 96.064163 L 283.890935 57.74058 C 283.890935 50.861502 289.413174 45.111541 296.519974 45.111541 C 303.399052 45.111541 309.338781 50.861502 309.338781 57.74058 Z M 427.972045 -2.61503 C 396.537029 -2.61503 365.519502 22.699978 365.519502 54.324762 L 365.519502 97.980817 C 365.519502 130.772672 396.537029 156.277448 427.972045 156.277448 C 460.166132 156.277448 490.434077 130.772672 490.434077 97.980817 L 490.434077 54.324762 C 490.434077 22.699978 460.166132 -2.61503 427.972045 -2.61503 Z M 440.800341 96.064163 C 440.800341 102.611148 434.851124 108.361109 427.972045 108.361109 C 420.865246 108.361109 415.343006 102.611148 415.343006 96.064163 L 415.343006 57.74058 C 415.343006 50.861502 420.865246 45.111541 427.972045 45.111541 C 434.851124 45.111541 440.800341 50.861502 440.800341 57.74058 Z M 622.075917 141.864593 L 601.400728 79.402561 L 622.872941 12.727687 C 623.252476 11.560615 623.432755 10.811033 623.432755 9.643962 C 623.432755 4.871305 619.409681 1.037997 614.637024 1.037997 L 580.905818 1.037997 C 576.692976 1.037997 573.799019 3.704233 572.062645 9.643962 C 572.062645 9.643962 564.016495 35.329017 560.790444 43.934981 C 560.183188 45.111541 559.433606 47.588009 558.873791 48.944848 C 558.684023 49.694431 558.257046 50.681222 557.886999 51.611084 C 557.516952 52.778155 556.340392 53.527738 554.850716 53.527738 C 553.863924 53.527738 551.387456 52.778155 551.387456 50.491455 L 551.387456 9.273915 C 551.387456 4.501258 547.364381 0.478183 542.544282 0.478183 L 508.851031 0.478183 C 504.030931 0.478183 500.007857 4.501258 500.007857 9.273915 L 500.007857 144.57827 C 500.007857 149.350927 504.030931 153.184235 508.851031 153.184235 L 542.544282 153.184235 C 547.364381 153.184235 551.387456 149.350927 551.387456 144.57827 L 551.387456 106.444455 C 551.387456 104.907337 552.744295 103.730777 553.863924 103.550498 C 555.030995 103.170963 556.76737 103.730777 557.327184 105.647431 C 559.433606 111.40688 561.720306 117.906423 571.692598 148.04153 C 571.872877 148.601345 573.979298 153.184235 579.359212 153.184235 L 615.016559 153.184235 C 617.493027 153.003955 619.599448 151.647116 621.146055 149.540695 C 622.502894 147.434274 622.872941 144.57827 622.075917 141.864593 Z M 622.075917 141.864593 " stroke="#b2edef" stroke-width="3.114264" stroke-opacity="1" stroke-miterlimit="4"/></svg>