<svg xmlns="http://www.w3.org/2000/svg" xmlns:xlink="http://www.w3.org/1999/xlink" width="500" zoomAndPan="magnify" viewBox="0 0 375 374.999991" height="500" preserveAspectRatio="xMidYMid meet" version="1.0"><defs><g/></defs><g fill="#999ae8" fill-opacity="1"><g transform="translate(50.81776, 156.551721)"><g><path d="M 12.640625 0 C 10.703125 0 9.1875 -0.222656 8.09375 -0.671875 C 7.007812 -1.117188 6.039062 -1.890625 5.1875 -2.984375 C 4.851562 -3.410156 4.59375 -3.8125 4.40625 -4.1875 C 4.21875 -4.5625 4.0625 -5.007812 3.9375 -5.53125 C 3.820312 -6.050781 3.75 -6.675781 3.71875 -7.40625 C 3.695312 -8.144531 3.6875 -9.082031 3.6875 -10.21875 L 3.6875 -37.0625 C 3.6875 -38.195312 3.707031 -39.140625 3.75 -39.890625 C 3.800781 -40.648438 3.898438 -41.300781 4.046875 -41.84375 C 4.191406 -42.394531 4.378906 -42.867188 4.609375 -43.265625 C 4.847656 -43.671875 5.15625 -44.113281 5.53125 -44.59375 C 7.050781 -46.4375 9.300781 -47.359375 12.28125 -47.359375 L 18.390625 -47.359375 C 19.671875 -47.359375 20.75 -47.34375 21.625 -47.3125 C 22.5 -47.289062 23.253906 -47.253906 23.890625 -47.203125 C 24.523438 -47.160156 25.09375 -47.101562 25.59375 -47.03125 C 26.09375 -46.96875 26.601562 -46.890625 27.125 -46.796875 C 28.726562 -46.410156 30.191406 -45.78125 31.515625 -44.90625 C 32.847656 -44.03125 34 -42.960938 34.96875 -41.703125 C 35.9375 -40.453125 36.679688 -39.054688 37.203125 -37.515625 C 37.722656 -35.984375 37.984375 -34.363281 37.984375 -32.65625 C 37.984375 -31.28125 37.828125 -30.070312 37.515625 -29.03125 C 37.210938 -28 36.632812 -26.769531 35.78125 -25.34375 C 37.4375 -23.96875 38.722656 -22.285156 39.640625 -20.296875 C 40.566406 -18.316406 41.03125 -16.257812 41.03125 -14.125 C 41.03125 -9.914062 39.445312 -6.367188 36.28125 -3.484375 C 35.476562 -2.765625 34.734375 -2.179688 34.046875 -1.734375 C 33.359375 -1.285156 32.585938 -0.929688 31.734375 -0.671875 C 30.878906 -0.410156 29.90625 -0.234375 28.8125 -0.140625 C 27.726562 -0.046875 26.429688 0 24.921875 0 Z M 21.09375 -29.03125 C 21.5625 -29.03125 21.898438 -29.039062 22.109375 -29.0625 C 22.328125 -29.09375 22.53125 -29.132812 22.71875 -29.1875 C 23.09375 -29.28125 23.410156 -29.476562 23.671875 -29.78125 C 23.929688 -30.09375 24.0625 -30.460938 24.0625 -30.890625 C 24.0625 -31.546875 23.828125 -32.015625 23.359375 -32.296875 C 22.890625 -32.585938 22.109375 -32.734375 21.015625 -32.734375 L 19.3125 -32.734375 L 19.3125 -29.03125 Z M 21.875 -14.5625 C 22.53125 -14.5625 22.988281 -14.5625 23.25 -14.5625 C 23.507812 -14.5625 23.734375 -14.609375 23.921875 -14.703125 C 24.867188 -14.835938 25.34375 -15.425781 25.34375 -16.46875 C 25.34375 -17.226562 25.082031 -17.75 24.5625 -18.03125 C 24.039062 -18.3125 23.144531 -18.453125 21.875 -18.453125 L 19.3125 -18.453125 L 19.3125 -14.5625 Z M 20.59375 -37.90625 C 19.644531 -37.90625 19.015625 -37.832031 18.703125 -37.6875 C 18.398438 -37.550781 18.25 -37.222656 18.25 -36.703125 C 18.25 -36.179688 18.398438 -35.835938 18.703125 -35.671875 C 19.015625 -35.503906 19.644531 -35.421875 20.59375 -35.421875 L 21.09375 -35.421875 C 24.925781 -35.421875 26.84375 -33.882812 26.84375 -30.8125 L 26.765625 -30.03125 C 26.765625 -29.65625 26.867188 -29.347656 27.078125 -29.109375 C 27.296875 -28.867188 27.59375 -28.75 27.96875 -28.75 C 28.914062 -28.75 29.390625 -29.554688 29.390625 -31.171875 C 29.390625 -32.210938 29.128906 -33.21875 28.609375 -34.1875 C 28.085938 -35.15625 27.351562 -35.972656 26.40625 -36.640625 C 25.75 -37.066406 24.992188 -37.382812 24.140625 -37.59375 C 23.285156 -37.800781 22.242188 -37.90625 21.015625 -37.90625 Z M 23 -21.15625 C 26.363281 -21.15625 28.09375 -19.710938 28.1875 -16.828125 C 28.238281 -15.785156 28.34375 -15.109375 28.5 -14.796875 C 28.664062 -14.492188 29.007812 -14.34375 29.53125 -14.34375 C 30.382812 -14.34375 30.8125 -15.078125 30.8125 -16.546875 C 30.8125 -18.484375 30.195312 -20.113281 28.96875 -21.4375 C 28.164062 -22.25 27.265625 -22.804688 26.265625 -23.109375 C 25.273438 -23.421875 23.785156 -23.578125 21.796875 -23.578125 L 20.59375 -23.578125 C 19.6875 -23.578125 19.066406 -23.492188 18.734375 -23.328125 C 18.410156 -23.160156 18.25 -22.835938 18.25 -22.359375 C 18.25 -21.554688 18.742188 -21.15625 19.734375 -21.15625 Z M 32.453125 -5.046875 C 32.453125 -5.847656 32.117188 -6.25 31.453125 -6.25 C 31.359375 -6.25 31.21875 -6.222656 31.03125 -6.171875 C 30.84375 -6.128906 30.507812 -5.988281 30.03125 -5.75 C 29.46875 -5.507812 28.925781 -5.351562 28.40625 -5.28125 C 27.882812 -5.21875 27.101562 -5.1875 26.0625 -5.1875 L 17.1875 -5.1875 C 16.332031 -5.1875 15.757812 -5.101562 15.46875 -4.9375 C 15.1875 -4.769531 15.046875 -4.425781 15.046875 -3.90625 C 15.046875 -3.101562 15.546875 -2.703125 16.546875 -2.703125 L 26.34375 -2.703125 C 28.28125 -2.703125 29.78125 -2.910156 30.84375 -3.328125 C 31.914062 -3.753906 32.453125 -4.328125 32.453125 -5.046875 Z M 8.796875 -43.8125 C 8.421875 -43.8125 8.09375 -43.664062 7.8125 -43.375 C 7.53125 -43.09375 7.390625 -42.765625 7.390625 -42.390625 C 7.390625 -42.003906 7.53125 -41.671875 7.8125 -41.390625 C 8.09375 -41.109375 8.421875 -40.96875 8.796875 -40.96875 C 9.179688 -40.96875 9.515625 -41.109375 9.796875 -41.390625 C 10.078125 -41.671875 10.21875 -42.003906 10.21875 -42.390625 C 10.21875 -42.765625 10.078125 -43.09375 9.796875 -43.375 C 9.515625 -43.664062 9.179688 -43.8125 8.796875 -43.8125 Z M 8.875 -37.984375 C 8.875 -38.878906 8.800781 -39.46875 8.65625 -39.75 C 8.519531 -40.039062 8.191406 -40.1875 7.671875 -40.1875 C 7.148438 -40.1875 6.804688 -40.03125 6.640625 -39.71875 C 6.472656 -39.414062 6.390625 -38.835938 6.390625 -37.984375 L 6.390625 -9.375 C 6.390625 -7.570312 6.492188 -6.363281 6.703125 -5.75 C 6.921875 -5.132812 7.335938 -4.828125 7.953125 -4.828125 C 8.753906 -4.828125 9.15625 -5.207031 9.15625 -5.96875 C 9.15625 -6.300781 9.109375 -6.617188 9.015625 -6.921875 C 8.921875 -7.234375 8.875 -7.789062 8.875 -8.59375 Z M 8.875 -37.984375 "/></g></g></g><g fill="#999ae8" fill-opacity="1"><g transform="translate(94.122985, 156.551721)"><g><path d="M 27.328125 -48.640625 C 30.785156 -48.640625 34.03125 -47.988281 37.0625 -46.6875 C 40.09375 -45.382812 42.726562 -43.59375 44.96875 -41.3125 C 47.21875 -39.039062 48.992188 -36.390625 50.296875 -33.359375 C 51.597656 -30.335938 52.25 -27.097656 52.25 -23.640625 C 52.25 -20.179688 51.597656 -16.9375 50.296875 -13.90625 C 48.992188 -10.882812 47.21875 -8.25 44.96875 -6 C 42.726562 -3.75 40.09375 -1.972656 37.0625 -0.671875 C 34.03125 0.628906 30.785156 1.28125 27.328125 1.28125 C 23.878906 1.28125 20.640625 0.628906 17.609375 -0.671875 C 14.578125 -1.972656 11.925781 -3.75 9.65625 -6 C 7.382812 -8.25 5.597656 -10.882812 4.296875 -13.90625 C 2.992188 -16.9375 2.34375 -20.179688 2.34375 -23.640625 C 2.34375 -27.097656 2.992188 -30.335938 4.296875 -33.359375 C 5.597656 -36.390625 7.382812 -39.039062 9.65625 -41.3125 C 11.925781 -43.59375 14.578125 -45.382812 17.609375 -46.6875 C 20.640625 -47.988281 23.878906 -48.640625 27.328125 -48.640625 Z M 27.328125 -32.9375 C 26.054688 -32.9375 24.851562 -32.703125 23.71875 -32.234375 C 22.582031 -31.765625 21.597656 -31.101562 20.765625 -30.25 C 19.941406 -29.394531 19.28125 -28.398438 18.78125 -27.265625 C 18.28125 -26.128906 18.03125 -24.921875 18.03125 -23.640625 C 18.03125 -22.359375 18.265625 -21.148438 18.734375 -20.015625 C 19.210938 -18.878906 19.878906 -17.894531 20.734375 -17.0625 C 21.585938 -16.238281 22.582031 -15.578125 23.71875 -15.078125 C 24.851562 -14.585938 26.054688 -14.34375 27.328125 -14.34375 C 28.609375 -14.34375 29.816406 -14.585938 30.953125 -15.078125 C 32.085938 -15.578125 33.066406 -16.238281 33.890625 -17.0625 C 34.722656 -17.894531 35.390625 -18.878906 35.890625 -20.015625 C 36.390625 -21.148438 36.640625 -22.359375 36.640625 -23.640625 C 36.640625 -24.921875 36.390625 -26.128906 35.890625 -27.265625 C 35.390625 -28.398438 34.722656 -29.394531 33.890625 -30.25 C 33.066406 -31.101562 32.085938 -31.765625 30.953125 -32.234375 C 29.816406 -32.703125 28.609375 -32.9375 27.328125 -32.9375 Z M 7.671875 -23.78125 C 7.671875 -25.488281 7.941406 -27.253906 8.484375 -29.078125 C 9.023438 -30.898438 9.722656 -32.492188 10.578125 -33.859375 C 10.953125 -34.378906 11.175781 -34.734375 11.25 -34.921875 C 11.320312 -35.117188 11.359375 -35.335938 11.359375 -35.578125 C 11.359375 -36.328125 11.003906 -36.703125 10.296875 -36.703125 C 9.773438 -36.703125 9.226562 -36.273438 8.65625 -35.421875 C 7.613281 -33.867188 6.785156 -32.015625 6.171875 -29.859375 C 5.554688 -27.703125 5.25 -25.5625 5.25 -23.4375 C 5.25 -20.40625 5.828125 -17.550781 6.984375 -14.875 C 8.148438 -12.195312 9.738281 -9.863281 11.75 -7.875 C 13.757812 -5.894531 16.125 -4.332031 18.84375 -3.1875 C 21.570312 -2.050781 24.472656 -1.484375 27.546875 -1.484375 C 29.203125 -1.484375 30.894531 -1.6875 32.625 -2.09375 C 34.351562 -2.5 35.90625 -3.078125 37.28125 -3.828125 C 38.03125 -4.210938 38.40625 -4.6875 38.40625 -5.25 C 38.40625 -5.582031 38.3125 -5.867188 38.125 -6.109375 C 37.9375 -6.347656 37.675781 -6.46875 37.34375 -6.46875 C 37.207031 -6.46875 37.066406 -6.429688 36.921875 -6.359375 C 36.773438 -6.285156 36.441406 -6.128906 35.921875 -5.890625 C 33.085938 -4.566406 30.25 -3.90625 27.40625 -3.90625 C 24.65625 -3.90625 22.082031 -4.425781 19.6875 -5.46875 C 17.300781 -6.507812 15.222656 -7.925781 13.453125 -9.71875 C 11.679688 -11.519531 10.273438 -13.628906 9.234375 -16.046875 C 8.191406 -18.460938 7.671875 -21.039062 7.671875 -23.78125 Z M 41.671875 -23.359375 C 41.671875 -25.441406 41.300781 -27.367188 40.5625 -29.140625 C 39.832031 -30.921875 38.828125 -32.460938 37.546875 -33.765625 C 36.273438 -35.066406 34.75 -36.082031 32.96875 -36.8125 C 31.195312 -37.539062 29.296875 -37.90625 27.265625 -37.90625 C 26.316406 -37.90625 25.390625 -37.820312 24.484375 -37.65625 C 23.585938 -37.5 22.796875 -37.289062 22.109375 -37.03125 C 21.429688 -36.769531 20.890625 -36.472656 20.484375 -36.140625 C 20.078125 -35.804688 19.875 -35.453125 19.875 -35.078125 C 19.875 -34.265625 20.226562 -33.859375 20.9375 -33.859375 C 21.132812 -33.859375 21.492188 -33.976562 22.015625 -34.21875 C 23.710938 -35.070312 25.507812 -35.5 27.40625 -35.5 C 29.113281 -35.5 30.6875 -35.191406 32.125 -34.578125 C 33.570312 -33.960938 34.828125 -33.097656 35.890625 -31.984375 C 36.953125 -30.867188 37.78125 -29.566406 38.375 -28.078125 C 38.96875 -26.585938 39.265625 -24.988281 39.265625 -23.28125 C 39.265625 -22.570312 39.203125 -21.910156 39.078125 -21.296875 C 38.960938 -20.679688 38.738281 -19.945312 38.40625 -19.09375 C 38.21875 -18.53125 38.125 -18.175781 38.125 -18.03125 C 38.125 -17.75 38.226562 -17.5 38.4375 -17.28125 C 38.65625 -17.070312 38.929688 -16.96875 39.265625 -16.96875 C 39.878906 -16.96875 40.351562 -17.367188 40.6875 -18.171875 C 41.019531 -18.878906 41.265625 -19.695312 41.421875 -20.625 C 41.585938 -21.550781 41.671875 -22.460938 41.671875 -23.359375 Z M 12.703125 -39.828125 C 12.328125 -39.828125 11.984375 -39.6875 11.671875 -39.40625 C 11.367188 -39.125 11.21875 -38.789062 11.21875 -38.40625 C 11.21875 -37.976562 11.367188 -37.625 11.671875 -37.34375 C 11.984375 -37.0625 12.328125 -36.921875 12.703125 -36.921875 C 13.085938 -36.921875 13.421875 -37.0625 13.703125 -37.34375 C 13.984375 -37.625 14.125 -37.976562 14.125 -38.40625 C 14.125 -38.789062 13.984375 -39.125 13.703125 -39.40625 C 13.421875 -39.6875 13.085938 -39.828125 12.703125 -39.828125 Z M 12.703125 -39.828125 "/></g></g></g><g fill="#999ae8" fill-opacity="1"><g transform="translate(148.715966, 156.551721)"><g><path d="M 27.328125 -48.640625 C 30.785156 -48.640625 34.03125 -47.988281 37.0625 -46.6875 C 40.09375 -45.382812 42.726562 -43.59375 44.96875 -41.3125 C 47.21875 -39.039062 48.992188 -36.390625 50.296875 -33.359375 C 51.597656 -30.335938 52.25 -27.097656 52.25 -23.640625 C 52.25 -20.179688 51.597656 -16.9375 50.296875 -13.90625 C 48.992188 -10.882812 47.21875 -8.25 44.96875 -6 C 42.726562 -3.75 40.09375 -1.972656 37.0625 -0.671875 C 34.03125 0.628906 30.785156 1.28125 27.328125 1.28125 C 23.878906 1.28125 20.640625 0.628906 17.609375 -0.671875 C 14.578125 -1.972656 11.925781 -3.75 9.65625 -6 C 7.382812 -8.25 5.597656 -10.882812 4.296875 -13.90625 C 2.992188 -16.9375 2.34375 -20.179688 2.34375 -23.640625 C 2.34375 -27.097656 2.992188 -30.335938 4.296875 -33.359375 C 5.597656 -36.390625 7.382812 -39.039062 9.65625 -41.3125 C 11.925781 -43.59375 14.578125 -45.382812 17.609375 -46.6875 C 20.640625 -47.988281 23.878906 -48.640625 27.328125 -48.640625 Z M 27.328125 -32.9375 C 26.054688 -32.9375 24.851562 -32.703125 23.71875 -32.234375 C 22.582031 -31.765625 21.597656 -31.101562 20.765625 -30.25 C 19.941406 -29.394531 19.28125 -28.398438 18.78125 -27.265625 C 18.28125 -26.128906 18.03125 -24.921875 18.03125 -23.640625 C 18.03125 -22.359375 18.265625 -21.148438 18.734375 -20.015625 C 19.210938 -18.878906 19.878906 -17.894531 20.734375 -17.0625 C 21.585938 -16.238281 22.582031 -15.578125 23.71875 -15.078125 C 24.851562 -14.585938 26.054688 -14.34375 27.328125 -14.34375 C 28.609375 -14.34375 29.816406 -14.585938 30.953125 -15.078125 C 32.085938 -15.578125 33.066406 -16.238281 33.890625 -17.0625 C 34.722656 -17.894531 35.390625 -18.878906 35.890625 -20.015625 C 36.390625 -21.148438 36.640625 -22.359375 36.640625 -23.640625 C 36.640625 -24.921875 36.390625 -26.128906 35.890625 -27.265625 C 35.390625 -28.398438 34.722656 -29.394531 33.890625 -30.25 C 33.066406 -31.101562 32.085938 -31.765625 30.953125 -32.234375 C 29.816406 -32.703125 28.609375 -32.9375 27.328125 -32.9375 Z M 7.671875 -23.78125 C 7.671875 -25.488281 7.941406 -27.253906 8.484375 -29.078125 C 9.023438 -30.898438 9.722656 -32.492188 10.578125 -33.859375 C 10.953125 -34.378906 11.175781 -34.734375 11.25 -34.921875 C 11.320312 -35.117188 11.359375 -35.335938 11.359375 -35.578125 C 11.359375 -36.328125 11.003906 -36.703125 10.296875 -36.703125 C 9.773438 -36.703125 9.226562 -36.273438 8.65625 -35.421875 C 7.613281 -33.867188 6.785156 -32.015625 6.171875 -29.859375 C 5.554688 -27.703125 5.25 -25.5625 5.25 -23.4375 C 5.25 -20.40625 5.828125 -17.550781 6.984375 -14.875 C 8.148438 -12.195312 9.738281 -9.863281 11.75 -7.875 C 13.757812 -5.894531 16.125 -4.332031 18.84375 -3.1875 C 21.570312 -2.050781 24.472656 -1.484375 27.546875 -1.484375 C 29.203125 -1.484375 30.894531 -1.6875 32.625 -2.09375 C 34.351562 -2.5 35.90625 -3.078125 37.28125 -3.828125 C 38.03125 -4.210938 38.40625 -4.6875 38.40625 -5.25 C 38.40625 -5.582031 38.3125 -5.867188 38.125 -6.109375 C 37.9375 -6.347656 37.675781 -6.46875 37.34375 -6.46875 C 37.207031 -6.46875 37.066406 -6.429688 36.921875 -6.359375 C 36.773438 -6.285156 36.441406 -6.128906 35.921875 -5.890625 C 33.085938 -4.566406 30.25 -3.90625 27.40625 -3.90625 C 24.65625 -3.90625 22.082031 -4.425781 19.6875 -5.46875 C 17.300781 -6.507812 15.222656 -7.925781 13.453125 -9.71875 C 11.679688 -11.519531 10.273438 -13.628906 9.234375 -16.046875 C 8.191406 -18.460938 7.671875 -21.039062 7.671875 -23.78125 Z M 41.671875 -23.359375 C 41.671875 -25.441406 41.300781 -27.367188 40.5625 -29.140625 C 39.832031 -30.921875 38.828125 -32.460938 37.546875 -33.765625 C 36.273438 -35.066406 34.75 -36.082031 32.96875 -36.8125 C 31.195312 -37.539062 29.296875 -37.90625 27.265625 -37.90625 C 26.316406 -37.90625 25.390625 -37.820312 24.484375 -37.65625 C 23.585938 -37.5 22.796875 -37.289062 22.109375 -37.03125 C 21.429688 -36.769531 20.890625 -36.472656 20.484375 -36.140625 C 20.078125 -35.804688 19.875 -35.453125 19.875 -35.078125 C 19.875 -34.265625 20.226562 -33.859375 20.9375 -33.859375 C 21.132812 -33.859375 21.492188 -33.976562 22.015625 -34.21875 C 23.710938 -35.070312 25.507812 -35.5 27.40625 -35.5 C 29.113281 -35.5 30.6875 -35.191406 32.125 -34.578125 C 33.570312 -33.960938 34.828125 -33.097656 35.890625 -31.984375 C 36.953125 -30.867188 37.78125 -29.566406 38.375 -28.078125 C 38.96875 -26.585938 39.265625 -24.988281 39.265625 -23.28125 C 39.265625 -22.570312 39.203125 -21.910156 39.078125 -21.296875 C 38.960938 -20.679688 38.738281 -19.945312 38.40625 -19.09375 C 38.21875 -18.53125 38.125 -18.175781 38.125 -18.03125 C 38.125 -17.75 38.226562 -17.5 38.4375 -17.28125 C 38.65625 -17.070312 38.929688 -16.96875 39.265625 -16.96875 C 39.878906 -16.96875 40.351562 -17.367188 40.6875 -18.171875 C 41.019531 -18.878906 41.265625 -19.695312 41.421875 -20.625 C 41.585938 -21.550781 41.671875 -22.460938 41.671875 -23.359375 Z M 12.703125 -39.828125 C 12.328125 -39.828125 11.984375 -39.6875 11.671875 -39.40625 C 11.367188 -39.125 11.21875 -38.789062 11.21875 -38.40625 C 11.21875 -37.976562 11.367188 -37.625 11.671875 -37.34375 C 11.984375 -37.0625 12.328125 -36.921875 12.703125 -36.921875 C 13.085938 -36.921875 13.421875 -37.0625 13.703125 -37.34375 C 13.984375 -37.625 14.125 -37.976562 14.125 -38.40625 C 14.125 -38.789062 13.984375 -39.125 13.703125 -39.40625 C 13.421875 -39.6875 13.085938 -39.828125 12.703125 -39.828125 Z M 12.703125 -39.828125 "/></g></g></g><g fill="#999ae8" fill-opacity="1"><g transform="translate(203.308946, 156.551721)"><g><path d="M 19.3125 -16.890625 L 19.3125 -9.375 C 19.3125 -7.71875 19.203125 -6.4375 18.984375 -5.53125 C 18.773438 -4.632812 18.410156 -3.785156 17.890625 -2.984375 C 17.179688 -1.941406 16.257812 -1.125 15.125 -0.53125 C 13.988281 0.0625 12.78125 0.359375 11.5 0.359375 C 10.082031 0.359375 8.769531 0.0234375 7.5625 -0.640625 C 6.351562 -1.304688 5.414062 -2.226562 4.75 -3.40625 C 4.332031 -4.207031 4.050781 -5.019531 3.90625 -5.84375 C 3.757812 -6.675781 3.6875 -7.851562 3.6875 -9.375 L 3.6875 -37.984375 C 3.6875 -39.640625 3.78125 -40.914062 3.96875 -41.8125 C 4.164062 -42.71875 4.546875 -43.570312 5.109375 -44.375 C 5.773438 -45.414062 6.675781 -46.234375 7.8125 -46.828125 C 8.945312 -47.421875 10.175781 -47.71875 11.5 -47.71875 C 12.875 -47.71875 14.164062 -47.375 15.375 -46.6875 C 16.582031 -46 17.515625 -45.0625 18.171875 -43.875 C 18.597656 -43.113281 18.894531 -42.316406 19.0625 -41.484375 C 19.226562 -40.660156 19.3125 -39.492188 19.3125 -37.984375 L 19.3125 -31.09375 L 27.6875 -43.671875 C 29.4375 -46.367188 31.660156 -47.71875 34.359375 -47.71875 C 35.453125 -47.71875 36.484375 -47.503906 37.453125 -47.078125 C 38.421875 -46.648438 39.257812 -46.078125 39.96875 -45.359375 C 40.675781 -44.648438 41.242188 -43.8125 41.671875 -42.84375 C 42.097656 -41.875 42.3125 -40.867188 42.3125 -39.828125 C 42.3125 -38.316406 41.835938 -36.875 40.890625 -35.5 L 33.15625 -24.21875 L 42.25 -12.640625 C 43 -11.691406 43.523438 -10.835938 43.828125 -10.078125 C 44.140625 -9.328125 44.296875 -8.523438 44.296875 -7.671875 C 44.296875 -6.578125 44.082031 -5.546875 43.65625 -4.578125 C 43.238281 -3.609375 42.671875 -2.753906 41.953125 -2.015625 C 41.242188 -1.285156 40.414062 -0.707031 39.46875 -0.28125 C 38.53125 0.144531 37.515625 0.359375 36.421875 0.359375 C 35.191406 0.359375 34.09375 0.0976562 33.125 -0.421875 C 32.15625 -0.941406 31.195312 -1.796875 30.25 -2.984375 Z M 30.25 -38.203125 C 30.53125 -38.671875 30.71875 -39.007812 30.8125 -39.21875 C 30.90625 -39.4375 30.953125 -39.640625 30.953125 -39.828125 C 30.953125 -40.535156 30.570312 -40.890625 29.8125 -40.890625 C 29.53125 -40.890625 29.28125 -40.804688 29.0625 -40.640625 C 28.851562 -40.484375 28.585938 -40.144531 28.265625 -39.625 L 20.09375 -27.484375 C 19.757812 -27.003906 19.546875 -26.671875 19.453125 -26.484375 C 19.359375 -26.296875 19.3125 -26.109375 19.3125 -25.921875 C 19.3125 -25.585938 19.441406 -25.3125 19.703125 -25.09375 C 19.960938 -24.882812 20.28125 -24.78125 20.65625 -24.78125 C 20.894531 -24.78125 21.097656 -24.863281 21.265625 -25.03125 C 21.429688 -25.195312 21.703125 -25.539062 22.078125 -26.0625 Z M 31.59375 -5.390625 C 32.59375 -4.066406 33.382812 -3.203125 33.96875 -2.796875 C 34.5625 -2.398438 35.285156 -2.203125 36.140625 -2.203125 C 37.316406 -2.203125 37.90625 -2.675781 37.90625 -3.625 C 37.90625 -4.09375 37.773438 -4.410156 37.515625 -4.578125 C 37.265625 -4.742188 36.78125 -4.851562 36.0625 -4.90625 C 35.738281 -4.945312 35.492188 -5.003906 35.328125 -5.078125 C 35.160156 -5.148438 34.957031 -5.300781 34.71875 -5.53125 C 34.382812 -5.914062 33.976562 -6.378906 33.5 -6.921875 C 33.03125 -7.460938 32.65625 -7.925781 32.375 -8.3125 L 24.28125 -18.890625 C 23.613281 -19.734375 23.070312 -20.15625 22.65625 -20.15625 C 22.363281 -20.15625 22.097656 -20.035156 21.859375 -19.796875 C 21.628906 -19.566406 21.515625 -19.285156 21.515625 -18.953125 C 21.515625 -18.617188 21.773438 -18.125 22.296875 -17.46875 Z M 8.734375 -43.875 C 8.359375 -43.875 8.023438 -43.734375 7.734375 -43.453125 C 7.453125 -43.171875 7.3125 -42.835938 7.3125 -42.453125 C 7.3125 -42.078125 7.453125 -41.742188 7.734375 -41.453125 C 8.023438 -41.171875 8.359375 -41.03125 8.734375 -41.03125 C 9.109375 -41.03125 9.4375 -41.171875 9.71875 -41.453125 C 10.007812 -41.742188 10.15625 -42.078125 10.15625 -42.453125 C 10.15625 -42.835938 10.007812 -43.171875 9.71875 -43.453125 C 9.4375 -43.734375 9.109375 -43.875 8.734375 -43.875 Z M 11.140625 -4.828125 C 10.203125 -5.015625 9.578125 -5.414062 9.265625 -6.03125 C 8.953125 -6.644531 8.796875 -7.851562 8.796875 -9.65625 L 8.796875 -37.984375 C 8.796875 -38.878906 8.722656 -39.46875 8.578125 -39.75 C 8.441406 -40.039062 8.113281 -40.1875 7.59375 -40.1875 C 7.070312 -40.1875 6.738281 -40.039062 6.59375 -39.75 C 6.457031 -39.46875 6.390625 -38.878906 6.390625 -37.984375 L 6.390625 -9.234375 C 6.390625 -7.859375 6.4375 -6.835938 6.53125 -6.171875 C 6.625 -5.515625 6.835938 -4.925781 7.171875 -4.40625 C 7.597656 -3.738281 8.15625 -3.226562 8.84375 -2.875 C 9.53125 -2.519531 10.25 -2.34375 11 -2.34375 C 12.09375 -2.34375 12.640625 -2.789062 12.640625 -3.6875 C 12.640625 -4.300781 12.351562 -4.65625 11.78125 -4.75 Z M 32.59375 -43.8125 C 32.207031 -43.8125 31.875 -43.65625 31.59375 -43.34375 C 31.3125 -43.039062 31.171875 -42.695312 31.171875 -42.3125 C 31.171875 -41.9375 31.3125 -41.601562 31.59375 -41.3125 C 31.875 -41.03125 32.207031 -40.890625 32.59375 -40.890625 C 32.96875 -40.890625 33.296875 -41.03125 33.578125 -41.3125 C 33.867188 -41.601562 34.015625 -41.9375 34.015625 -42.3125 C 34.015625 -42.695312 33.867188 -43.039062 33.578125 -43.34375 C 33.296875 -43.65625 32.96875 -43.8125 32.59375 -43.8125 Z M 32.59375 -43.8125 "/></g></g></g><g fill="#999ae8" fill-opacity="1"><g transform="translate(248.814939, 156.551721)"><g><path d="M 13.625 -33.4375 C 12.96875 -32.164062 12.285156 -31.242188 11.578125 -30.671875 C 10.867188 -30.097656 10.015625 -29.8125 9.015625 -29.8125 C 7.972656 -29.8125 7.097656 -30.117188 6.390625 -30.734375 C 5.679688 -31.359375 5.328125 -32.144531 5.328125 -33.09375 C 5.328125 -33.375 5.375 -33.664062 5.46875 -33.96875 C 5.5625 -34.28125 5.75 -34.863281 6.03125 -35.71875 C 6.082031 -35.8125 6.117188 -35.914062 6.140625 -36.03125 C 6.160156 -36.144531 6.21875 -36.300781 6.3125 -36.5 C 4.425781 -37.582031 3.484375 -39.351562 3.484375 -41.8125 C 3.484375 -43.707031 4.132812 -45.316406 5.4375 -46.640625 C 6.738281 -47.972656 8.332031 -48.640625 10.21875 -48.640625 C 11.125 -48.640625 11.988281 -48.457031 12.8125 -48.09375 C 13.644531 -47.738281 14.351562 -47.253906 14.9375 -46.640625 C 15.53125 -46.023438 16.003906 -45.300781 16.359375 -44.46875 C 16.710938 -43.644531 16.890625 -42.757812 16.890625 -41.8125 C 16.890625 -40.726562 16.535156 -39.476562 15.828125 -38.0625 Z M 8.09375 -41.96875 C 8.09375 -42.476562 8.28125 -42.992188 8.65625 -43.515625 C 8.894531 -43.898438 9.035156 -44.125 9.078125 -44.1875 C 9.128906 -44.257812 9.15625 -44.394531 9.15625 -44.59375 C 9.15625 -44.820312 9.046875 -45.039062 8.828125 -45.25 C 8.617188 -45.46875 8.398438 -45.578125 8.171875 -45.578125 C 7.597656 -45.578125 7.085938 -45.242188 6.640625 -44.578125 C 6.191406 -43.921875 5.941406 -43.164062 5.890625 -42.3125 C 5.753906 -40.75 6.441406 -39.425781 7.953125 -38.34375 C 8.421875 -38.007812 8.738281 -37.734375 8.90625 -37.515625 C 9.070312 -37.304688 9.15625 -37.0625 9.15625 -36.78125 C 9.15625 -36.445312 8.988281 -35.925781 8.65625 -35.21875 C 8.375 -34.601562 8.1875 -34.1875 8.09375 -33.96875 C 8 -33.757812 7.953125 -33.535156 7.953125 -33.296875 C 7.953125 -33.054688 8.054688 -32.84375 8.265625 -32.65625 C 8.484375 -32.46875 8.734375 -32.375 9.015625 -32.375 C 9.585938 -32.375 10.109375 -32.894531 10.578125 -33.9375 C 10.953125 -34.644531 11.222656 -35.222656 11.390625 -35.671875 C 11.554688 -36.128906 11.640625 -36.546875 11.640625 -36.921875 C 11.640625 -38.148438 10.976562 -39.164062 9.65625 -39.96875 C 8.988281 -40.394531 8.5625 -40.710938 8.375 -40.921875 C 8.1875 -41.140625 8.09375 -41.488281 8.09375 -41.96875 Z M 8.09375 -41.96875 "/></g></g></g><g fill="#999ae8" fill-opacity="1"><g transform="translate(269.189682, 156.551721)"><g><path d="M 19.734375 1.203125 C 17.222656 1.203125 14.878906 0.894531 12.703125 0.28125 C 10.523438 -0.332031 8.644531 -1.179688 7.0625 -2.265625 C 5.476562 -3.359375 4.222656 -4.625 3.296875 -6.0625 C 2.378906 -7.507812 1.921875 -9.085938 1.921875 -10.796875 C 1.921875 -11.785156 2.109375 -12.707031 2.484375 -13.5625 C 2.859375 -14.414062 3.363281 -15.160156 4 -15.796875 C 4.644531 -16.429688 5.40625 -16.9375 6.28125 -17.3125 C 7.15625 -17.695312 8.09375 -17.890625 9.09375 -17.890625 C 10.039062 -17.890625 10.9375 -17.710938 11.78125 -17.359375 C 12.632812 -17.003906 13.582031 -16.425781 14.625 -15.625 C 15.476562 -14.957031 16.148438 -14.429688 16.640625 -14.046875 C 17.140625 -13.671875 17.554688 -13.375 17.890625 -13.15625 C 18.222656 -12.945312 18.519531 -12.816406 18.78125 -12.765625 C 19.039062 -12.722656 19.3125 -12.703125 19.59375 -12.703125 C 20.164062 -12.703125 20.628906 -12.890625 20.984375 -13.265625 C 21.335938 -13.648438 21.515625 -14.148438 21.515625 -14.765625 C 21.515625 -15.765625 20.921875 -16.570312 19.734375 -17.1875 C 19.304688 -17.414062 18.722656 -17.660156 17.984375 -17.921875 C 17.253906 -18.179688 16.253906 -18.523438 14.984375 -18.953125 C 13.847656 -19.335938 12.898438 -19.671875 12.140625 -19.953125 C 11.378906 -20.234375 10.726562 -20.515625 10.1875 -20.796875 C 9.644531 -21.085938 9.160156 -21.375 8.734375 -21.65625 C 8.304688 -21.9375 7.878906 -22.269531 7.453125 -22.65625 C 5.984375 -23.882812 4.878906 -25.375 4.140625 -27.125 C 3.410156 -28.875 3.046875 -30.8125 3.046875 -32.9375 C 3.046875 -35.257812 3.472656 -37.367188 4.328125 -39.265625 C 5.179688 -41.160156 6.363281 -42.789062 7.875 -44.15625 C 9.394531 -45.53125 11.226562 -46.597656 13.375 -47.359375 C 15.53125 -48.117188 17.890625 -48.5 20.453125 -48.5 C 22.578125 -48.5 24.5625 -48.222656 26.40625 -47.671875 C 28.257812 -47.128906 29.882812 -46.394531 31.28125 -45.46875 C 32.675781 -44.550781 33.765625 -43.460938 34.546875 -42.203125 C 35.328125 -40.953125 35.71875 -39.59375 35.71875 -38.125 C 35.71875 -36.226562 35.132812 -34.675781 33.96875 -33.46875 C 32.8125 -32.269531 31.332031 -31.671875 29.53125 -31.671875 C 28.445312 -31.671875 27.429688 -31.867188 26.484375 -32.265625 C 25.535156 -32.671875 24.421875 -33.367188 23.140625 -34.359375 C 22.296875 -35.023438 21.632812 -35.472656 21.15625 -35.703125 C 20.6875 -35.941406 20.257812 -36.0625 19.875 -36.0625 C 19.351562 -36.0625 18.90625 -35.882812 18.53125 -35.53125 C 18.15625 -35.175781 17.96875 -34.738281 17.96875 -34.21875 C 17.96875 -33.507812 18.285156 -32.941406 18.921875 -32.515625 C 19.554688 -32.085938 20.820312 -31.566406 22.71875 -30.953125 C 24.707031 -30.335938 26.613281 -29.59375 28.4375 -28.71875 C 30.257812 -27.84375 31.710938 -26.929688 32.796875 -25.984375 C 34.265625 -24.753906 35.410156 -23.15625 36.234375 -21.1875 C 37.066406 -19.226562 37.484375 -17.113281 37.484375 -14.84375 C 37.484375 -12.707031 37.09375 -10.65625 36.3125 -8.6875 C 35.53125 -6.726562 34.429688 -5.015625 33.015625 -3.546875 C 31.398438 -1.941406 29.515625 -0.75 27.359375 0.03125 C 25.210938 0.8125 22.671875 1.203125 19.734375 1.203125 Z M 26.484375 -35.359375 C 27.191406 -34.929688 27.78125 -34.625 28.25 -34.4375 C 28.726562 -34.25 29.226562 -34.15625 29.75 -34.15625 C 30.601562 -34.15625 31.359375 -34.4375 32.015625 -35 C 32.679688 -35.570312 33.015625 -36.234375 33.015625 -36.984375 C 33.015625 -37.367188 32.894531 -37.691406 32.65625 -37.953125 C 32.425781 -38.210938 32.117188 -38.34375 31.734375 -38.34375 C 31.304688 -38.34375 30.953125 -38.128906 30.671875 -37.703125 C 30.429688 -37.367188 30.21875 -37.15625 30.03125 -37.0625 C 29.84375 -36.96875 29.582031 -36.921875 29.25 -36.921875 C 29.007812 -36.921875 28.734375 -36.957031 28.421875 -37.03125 C 28.117188 -37.101562 27.851562 -37.253906 27.625 -37.484375 L 25.703125 -38.6875 C 24.328125 -39.632812 23.222656 -40.285156 22.390625 -40.640625 C 21.566406 -41.003906 20.773438 -41.1875 20.015625 -41.1875 C 19.210938 -41.1875 18.539062 -41.019531 18 -40.6875 C 17.457031 -40.351562 17.1875 -39.925781 17.1875 -39.40625 C 17.1875 -38.695312 17.539062 -38.34375 18.25 -38.34375 C 18.4375 -38.34375 18.578125 -38.363281 18.671875 -38.40625 L 19.390625 -38.625 C 19.671875 -38.71875 19.90625 -38.765625 20.09375 -38.765625 C 20.46875 -38.765625 20.859375 -38.671875 21.265625 -38.484375 C 21.671875 -38.296875 22.320312 -37.941406 23.21875 -37.421875 L 24.84375 -36.421875 Z M 9.296875 -37.34375 C 9.347656 -37.488281 9.382812 -37.617188 9.40625 -37.734375 C 9.425781 -37.847656 9.4375 -38.003906 9.4375 -38.203125 C 9.4375 -38.953125 9.035156 -39.328125 8.234375 -39.328125 C 7.566406 -39.328125 7 -38.75 6.53125 -37.59375 C 6.0625 -36.4375 5.828125 -35.03125 5.828125 -33.375 C 5.828125 -30.195312 6.867188 -27.519531 8.953125 -25.34375 C 9.421875 -24.875 9.898438 -24.460938 10.390625 -24.109375 C 10.890625 -23.753906 11.472656 -23.394531 12.140625 -23.03125 C 12.804688 -22.675781 13.585938 -22.3125 14.484375 -21.9375 C 15.378906 -21.5625 16.441406 -21.160156 17.671875 -20.734375 C 19.003906 -20.253906 20.070312 -19.828125 20.875 -19.453125 C 21.675781 -19.078125 22.300781 -18.695312 22.75 -18.3125 C 23.207031 -17.9375 23.53125 -17.507812 23.71875 -17.03125 C 23.90625 -16.5625 24.046875 -15.972656 24.140625 -15.265625 C 24.234375 -14.597656 24.347656 -14.144531 24.484375 -13.90625 C 24.628906 -13.675781 24.894531 -13.5625 25.28125 -13.5625 C 26.226562 -13.5625 26.703125 -14.269531 26.703125 -15.6875 C 26.703125 -17.34375 26.082031 -18.738281 24.84375 -19.875 C 23.613281 -21.007812 21.582031 -22.078125 18.75 -23.078125 C 17.65625 -23.453125 16.8125 -23.742188 16.21875 -23.953125 C 15.632812 -24.171875 15.148438 -24.347656 14.765625 -24.484375 C 14.390625 -24.628906 14.070312 -24.785156 13.8125 -24.953125 C 13.550781 -25.117188 13.207031 -25.320312 12.78125 -25.5625 C 9.800781 -27.3125 8.3125 -29.769531 8.3125 -32.9375 C 8.3125 -33.457031 8.359375 -34.023438 8.453125 -34.640625 C 8.546875 -35.265625 8.6875 -35.785156 8.875 -36.203125 Z M 19.734375 -1.28125 C 21.910156 -1.28125 23.910156 -1.570312 25.734375 -2.15625 C 27.554688 -2.75 29.082031 -3.59375 30.3125 -4.6875 C 31.164062 -5.394531 31.59375 -6.035156 31.59375 -6.609375 C 31.59375 -6.929688 31.472656 -7.195312 31.234375 -7.40625 C 31.003906 -7.625 30.742188 -7.734375 30.453125 -7.734375 C 30.078125 -7.734375 29.65625 -7.519531 29.1875 -7.09375 C 27.757812 -5.914062 26.347656 -5.085938 24.953125 -4.609375 C 23.554688 -4.140625 21.863281 -3.90625 19.875 -3.90625 C 18.21875 -3.90625 16.628906 -4.09375 15.109375 -4.46875 C 13.597656 -4.851562 12.273438 -5.351562 11.140625 -5.96875 C 10.003906 -6.582031 9.09375 -7.289062 8.40625 -8.09375 C 7.726562 -8.894531 7.390625 -9.722656 7.390625 -10.578125 C 7.390625 -11.148438 7.550781 -11.695312 7.875 -12.21875 C 8.113281 -12.539062 8.253906 -12.757812 8.296875 -12.875 C 8.347656 -13 8.375 -13.179688 8.375 -13.421875 C 8.375 -14.222656 7.972656 -14.625 7.171875 -14.625 C 6.503906 -14.625 5.929688 -14.253906 5.453125 -13.515625 C 4.984375 -12.785156 4.75 -11.878906 4.75 -10.796875 C 4.75 -9.515625 5.140625 -8.289062 5.921875 -7.125 C 6.703125 -5.96875 7.78125 -4.953125 9.15625 -4.078125 C 10.53125 -3.203125 12.113281 -2.515625 13.90625 -2.015625 C 15.707031 -1.523438 17.648438 -1.28125 19.734375 -1.28125 Z M 10.515625 -42.53125 C 10.128906 -42.53125 9.796875 -42.382812 9.515625 -42.09375 C 9.234375 -41.8125 9.09375 -41.484375 9.09375 -41.109375 C 9.09375 -40.679688 9.234375 -40.328125 9.515625 -40.046875 C 9.796875 -39.765625 10.128906 -39.625 10.515625 -39.625 C 10.890625 -39.625 11.21875 -39.765625 11.5 -40.046875 C 11.78125 -40.328125 11.921875 -40.679688 11.921875 -41.109375 C 11.921875 -41.484375 11.78125 -41.8125 11.5 -42.09375 C 11.21875 -42.382812 10.890625 -42.53125 10.515625 -42.53125 Z M 10.515625 -42.53125 "/></g></g></g><g fill="#f4b0e5" fill-opacity="1"><g transform="translate(145.171821, 220.945779)"><g><path d="M 38.375 -20.515625 C 39.082031 -21.222656 39.957031 -21.804688 41 -22.265625 C 42.039062 -22.722656 43.09375 -22.953125 44.15625 -22.953125 C 45.269531 -22.953125 46.332031 -22.722656 47.34375 -22.265625 C 48.363281 -21.804688 49.25 -21.195312 50 -20.4375 C 50.757812 -19.675781 51.367188 -18.800781 51.828125 -17.8125 C 52.285156 -16.832031 52.515625 -15.8125 52.515625 -14.75 C 52.515625 -11.707031 50.691406 -8.585938 47.046875 -5.390625 C 44.554688 -3.265625 41.789062 -1.617188 38.75 -0.453125 C 35.71875 0.710938 32.582031 1.296875 29.34375 1.296875 C 25.632812 1.296875 22.144531 0.597656 18.875 -0.796875 C 15.613281 -2.191406 12.765625 -4.078125 10.328125 -6.453125 C 7.898438 -8.835938 5.988281 -11.648438 4.59375 -14.890625 C 3.207031 -18.140625 2.515625 -21.585938 2.515625 -25.234375 C 2.515625 -28.929688 3.222656 -32.398438 4.640625 -35.640625 C 6.054688 -38.890625 7.976562 -41.71875 10.40625 -44.125 C 12.84375 -46.53125 15.691406 -48.425781 18.953125 -49.8125 C 22.222656 -51.207031 25.707031 -51.90625 29.40625 -51.90625 C 32.5 -51.90625 35.488281 -51.382812 38.375 -50.34375 C 41.269531 -49.3125 43.929688 -47.78125 46.359375 -45.75 C 50.460938 -42.457031 52.515625 -39.113281 52.515625 -35.71875 C 52.515625 -34.550781 52.296875 -33.460938 51.859375 -32.453125 C 51.429688 -31.441406 50.835938 -30.554688 50.078125 -29.796875 C 49.316406 -29.035156 48.429688 -28.4375 47.421875 -28 C 46.410156 -27.570312 45.320312 -27.359375 44.15625 -27.359375 C 43.144531 -27.359375 42.15625 -27.546875 41.1875 -27.921875 C 40.226562 -28.304688 39.46875 -28.800781 38.90625 -29.40625 L 36.484375 -32.078125 C 35.566406 -33.085938 34.472656 -33.859375 33.203125 -34.390625 C 31.941406 -34.921875 30.628906 -35.1875 29.265625 -35.1875 C 27.890625 -35.1875 26.59375 -34.929688 25.375 -34.421875 C 24.164062 -33.921875 23.117188 -33.210938 22.234375 -32.296875 C 21.347656 -31.390625 20.648438 -30.328125 20.140625 -29.109375 C 19.628906 -27.890625 19.375 -26.597656 19.375 -25.234375 C 19.375 -23.867188 19.628906 -22.585938 20.140625 -21.390625 C 20.648438 -20.203125 21.347656 -19.148438 22.234375 -18.234375 C 23.117188 -17.328125 24.15625 -16.617188 25.34375 -16.109375 C 26.53125 -15.609375 27.8125 -15.359375 29.1875 -15.359375 C 30.550781 -15.359375 31.878906 -15.644531 33.171875 -16.21875 C 34.460938 -16.800781 35.613281 -17.628906 36.625 -18.703125 Z M 8.125 -25.453125 C 8.125 -27.234375 8.390625 -29.0625 8.921875 -30.9375 C 9.460938 -32.8125 10.1875 -34.484375 11.09375 -35.953125 C 11.445312 -36.503906 11.660156 -36.867188 11.734375 -37.046875 C 11.816406 -37.222656 11.859375 -37.441406 11.859375 -37.703125 C 11.859375 -38.003906 11.726562 -38.269531 11.46875 -38.5 C 11.21875 -38.726562 10.914062 -38.84375 10.5625 -38.84375 C 9.957031 -38.84375 9.347656 -38.28125 8.734375 -37.15625 C 6.609375 -33.363281 5.546875 -29.390625 5.546875 -25.234375 C 5.546875 -21.890625 6.164062 -18.757812 7.40625 -15.84375 C 8.644531 -12.925781 10.328125 -10.40625 12.453125 -8.28125 C 14.585938 -6.15625 17.109375 -4.472656 20.015625 -3.234375 C 22.929688 -1.992188 26.0625 -1.375 29.40625 -1.375 C 31.332031 -1.375 33.242188 -1.597656 35.140625 -2.046875 C 37.046875 -2.503906 38.8125 -3.191406 40.4375 -4.109375 C 41.34375 -4.609375 41.796875 -5.140625 41.796875 -5.703125 C 41.796875 -6.003906 41.671875 -6.269531 41.421875 -6.5 C 41.171875 -6.726562 40.890625 -6.84375 40.578125 -6.84375 C 40.378906 -6.84375 40.203125 -6.816406 40.046875 -6.765625 C 39.898438 -6.710938 39.625 -6.585938 39.21875 -6.390625 C 35.875 -4.765625 32.601562 -3.953125 29.40625 -3.953125 C 26.414062 -3.953125 23.628906 -4.507812 21.046875 -5.625 C 18.460938 -6.738281 16.207031 -8.257812 14.28125 -10.1875 C 12.363281 -12.113281 10.859375 -14.378906 9.765625 -16.984375 C 8.671875 -19.597656 8.125 -22.421875 8.125 -25.453125 Z M 41.109375 -35.109375 C 37.921875 -38.753906 34.046875 -40.578125 29.484375 -40.578125 C 28.421875 -40.578125 27.394531 -40.488281 26.40625 -40.3125 C 25.414062 -40.132812 24.515625 -39.894531 23.703125 -39.59375 C 22.898438 -39.289062 22.253906 -38.945312 21.765625 -38.5625 C 21.285156 -38.1875 21.046875 -37.796875 21.046875 -37.390625 C 21.046875 -37.085938 21.171875 -36.804688 21.421875 -36.546875 C 21.679688 -36.296875 21.960938 -36.171875 22.265625 -36.171875 C 22.472656 -36.171875 22.800781 -36.273438 23.25 -36.484375 C 25.070312 -37.546875 27.078125 -38.078125 29.265625 -38.078125 C 33.265625 -38.078125 36.65625 -36.457031 39.4375 -33.21875 C 40.550781 -32 41.410156 -31.195312 42.015625 -30.8125 C 42.628906 -30.4375 43.421875 -30.25 44.390625 -30.25 C 45.453125 -30.25 46.382812 -30.488281 47.1875 -30.96875 C 48 -31.445312 48.40625 -31.992188 48.40625 -32.609375 C 48.40625 -33.015625 48.28125 -33.34375 48.03125 -33.59375 C 47.78125 -33.84375 47.476562 -33.96875 47.125 -33.96875 C 46.8125 -33.96875 46.429688 -33.816406 45.984375 -33.515625 C 45.628906 -33.265625 45.363281 -33.097656 45.1875 -33.015625 C 45.007812 -32.941406 44.742188 -32.90625 44.390625 -32.90625 C 43.878906 -32.90625 43.445312 -32.992188 43.09375 -33.171875 C 42.738281 -33.347656 42.304688 -33.71875 41.796875 -34.28125 Z M 13.296875 -42.328125 C 12.890625 -42.328125 12.535156 -42.175781 12.234375 -41.875 C 11.929688 -41.570312 11.78125 -41.21875 11.78125 -40.8125 C 11.78125 -40.351562 11.929688 -39.972656 12.234375 -39.671875 C 12.535156 -39.367188 12.890625 -39.21875 13.296875 -39.21875 C 13.703125 -39.21875 14.054688 -39.367188 14.359375 -39.671875 C 14.660156 -39.972656 14.8125 -40.351562 14.8125 -40.8125 C 14.8125 -41.21875 14.660156 -41.570312 14.359375 -41.875 C 14.054688 -42.175781 13.703125 -42.328125 13.296875 -42.328125 Z M 13.296875 -42.328125 "/></g></g></g><g fill="#f4b0e5" fill-opacity="1"><g transform="translate(199.585038, 220.945779)"><g><path d="M 13.609375 0 C 11.472656 0 9.757812 -0.300781 8.46875 -0.90625 C 7.175781 -1.519531 6.101562 -2.507812 5.25 -3.875 C 4.9375 -4.382812 4.703125 -4.863281 4.546875 -5.3125 C 4.398438 -5.769531 4.273438 -6.328125 4.171875 -6.984375 C 4.078125 -7.648438 4.015625 -8.472656 3.984375 -9.453125 C 3.960938 -10.441406 3.953125 -11.75 3.953125 -13.375 L 3.953125 -40.65625 C 3.953125 -42.425781 4.050781 -43.789062 4.25 -44.75 C 4.457031 -45.71875 4.863281 -46.632812 5.46875 -47.5 C 6.175781 -48.613281 7.140625 -49.488281 8.359375 -50.125 C 9.578125 -50.757812 10.894531 -51.078125 12.3125 -51.078125 C 13.78125 -51.078125 15.160156 -50.707031 16.453125 -49.96875 C 17.742188 -49.238281 18.742188 -48.238281 19.453125 -46.96875 C 19.910156 -46.15625 20.226562 -45.304688 20.40625 -44.421875 C 20.582031 -43.535156 20.671875 -42.28125 20.671875 -40.65625 L 20.671875 -15.65625 L 28.734375 -15.65625 C 30.203125 -15.65625 31.390625 -15.539062 32.296875 -15.3125 C 33.210938 -15.082031 34.050781 -14.691406 34.8125 -14.140625 C 35.820312 -13.429688 36.601562 -12.519531 37.15625 -11.40625 C 37.71875 -10.289062 38 -9.125 38 -7.90625 C 38 -6.789062 37.769531 -5.6875 37.3125 -4.59375 C 36.851562 -3.507812 36.222656 -2.613281 35.421875 -1.90625 C 34.660156 -1.195312 33.8125 -0.703125 32.875 -0.421875 C 31.9375 -0.140625 30.734375 0 29.265625 0 Z M 28.875 -2.890625 C 29.9375 -2.890625 30.734375 -2.9375 31.265625 -3.03125 C 31.804688 -3.132812 32.28125 -3.316406 32.6875 -3.578125 C 33.539062 -4.128906 33.96875 -4.734375 33.96875 -5.390625 C 33.96875 -5.742188 33.851562 -6.046875 33.625 -6.296875 C 33.394531 -6.554688 33.101562 -6.6875 32.75 -6.6875 C 32.5 -6.6875 32.097656 -6.507812 31.546875 -6.15625 C 31.085938 -5.851562 30.664062 -5.660156 30.28125 -5.578125 C 29.90625 -5.503906 29.234375 -5.46875 28.265625 -5.46875 L 18.234375 -5.46875 L 17.40625 -5.546875 C 16.394531 -5.441406 15.890625 -5.007812 15.890625 -4.25 C 15.890625 -3.695312 16.039062 -3.332031 16.34375 -3.15625 C 16.644531 -2.976562 17.273438 -2.890625 18.234375 -2.890625 Z M 9.34375 -46.96875 C 8.882812 -46.96875 8.515625 -46.800781 8.234375 -46.46875 C 7.960938 -46.144531 7.828125 -45.78125 7.828125 -45.375 C 7.828125 -44.96875 7.976562 -44.613281 8.28125 -44.3125 C 8.582031 -44.007812 8.9375 -43.859375 9.34375 -43.859375 C 9.75 -43.859375 10.101562 -44.007812 10.40625 -44.3125 C 10.71875 -44.613281 10.875 -44.96875 10.875 -45.375 C 10.875 -45.78125 10.71875 -46.144531 10.40625 -46.46875 C 10.101562 -46.800781 9.75 -46.96875 9.34375 -46.96875 Z M 9.421875 -9.953125 L 9.421875 -40.65625 C 9.421875 -41.625 9.34375 -42.257812 9.1875 -42.5625 C 9.039062 -42.863281 8.6875 -43.015625 8.125 -43.015625 C 7.570312 -43.015625 7.207031 -42.847656 7.03125 -42.515625 C 6.851562 -42.191406 6.765625 -41.570312 6.765625 -40.65625 L 6.765625 -10.03125 C 6.765625 -8.101562 6.863281 -6.8125 7.0625 -6.15625 C 7.269531 -5.5 7.726562 -5.171875 8.4375 -5.171875 C 9.300781 -5.171875 9.734375 -5.578125 9.734375 -6.390625 C 9.734375 -6.484375 9.71875 -6.582031 9.6875 -6.6875 C 9.664062 -6.789062 9.65625 -6.914062 9.65625 -7.0625 C 9.550781 -7.414062 9.484375 -7.71875 9.453125 -7.96875 C 9.429688 -8.226562 9.421875 -8.640625 9.421875 -9.203125 Z M 9.421875 -9.953125 "/></g></g></g><g fill="#f4b0e5" fill-opacity="1"><g transform="translate(239.027012, 220.945779)"><g><path d="M 29.34375 -40.65625 C 29.34375 -42.425781 29.453125 -43.789062 29.671875 -44.75 C 29.898438 -45.71875 30.320312 -46.632812 30.9375 -47.5 C 31.644531 -48.613281 32.601562 -49.488281 33.8125 -50.125 C 35.03125 -50.757812 36.347656 -51.078125 37.765625 -51.078125 C 39.234375 -51.078125 40.613281 -50.707031 41.90625 -49.96875 C 43.207031 -49.238281 44.210938 -48.238281 44.921875 -46.96875 C 45.367188 -46.15625 45.679688 -45.304688 45.859375 -44.421875 C 46.035156 -43.535156 46.125 -42.28125 46.125 -40.65625 L 46.125 -22.34375 C 46.125 -18.894531 45.796875 -16.039062 45.140625 -13.78125 C 44.484375 -11.53125 43.367188 -9.367188 41.796875 -7.296875 C 39.722656 -4.503906 37.238281 -2.375 34.34375 -0.90625 C 31.457031 0.5625 28.269531 1.296875 24.78125 1.296875 C 21.28125 1.296875 18.085938 0.5625 15.203125 -0.90625 C 12.316406 -2.375 9.804688 -4.503906 7.671875 -7.296875 C 6.097656 -9.367188 4.992188 -11.53125 4.359375 -13.78125 C 3.734375 -16.039062 3.421875 -18.894531 3.421875 -22.34375 L 3.421875 -40.65625 C 3.421875 -42.425781 3.535156 -43.789062 3.765625 -44.75 C 3.992188 -45.71875 4.382812 -46.632812 4.9375 -47.5 C 5.695312 -48.613281 6.671875 -49.488281 7.859375 -50.125 C 9.054688 -50.757812 10.363281 -51.078125 11.78125 -51.078125 C 13.300781 -51.078125 14.691406 -50.707031 15.953125 -49.96875 C 17.222656 -49.238281 18.210938 -48.238281 18.921875 -46.96875 C 19.378906 -46.15625 19.695312 -45.304688 19.875 -44.421875 C 20.050781 -43.535156 20.140625 -42.28125 20.140625 -40.65625 L 20.140625 -21.203125 C 20.140625 -17.347656 21.6875 -15.421875 24.78125 -15.421875 C 27.820312 -15.421875 29.34375 -17.347656 29.34375 -21.203125 Z M 8.359375 -46.96875 C 7.953125 -46.96875 7.597656 -46.816406 7.296875 -46.515625 C 6.992188 -46.210938 6.84375 -45.859375 6.84375 -45.453125 C 6.84375 -45.046875 6.992188 -44.6875 7.296875 -44.375 C 7.597656 -44.070312 7.953125 -43.921875 8.359375 -43.921875 C 8.765625 -43.921875 9.117188 -44.070312 9.421875 -44.375 C 9.722656 -44.6875 9.875 -45.046875 9.875 -45.453125 C 9.875 -45.859375 9.722656 -46.210938 9.421875 -46.515625 C 9.117188 -46.816406 8.765625 -46.96875 8.359375 -46.96875 Z M 34.8125 -46.96875 C 34.40625 -46.96875 34.046875 -46.816406 33.734375 -46.515625 C 33.429688 -46.210938 33.28125 -45.859375 33.28125 -45.453125 C 33.28125 -45.046875 33.429688 -44.6875 33.734375 -44.375 C 34.046875 -44.070312 34.40625 -43.921875 34.8125 -43.921875 C 35.21875 -43.921875 35.570312 -44.070312 35.875 -44.375 C 36.175781 -44.6875 36.328125 -45.046875 36.328125 -45.453125 C 36.328125 -45.859375 36.175781 -46.210938 35.875 -46.515625 C 35.570312 -46.816406 35.21875 -46.96875 34.8125 -46.96875 Z M 34.890625 -40.65625 C 34.890625 -41.625 34.8125 -42.257812 34.65625 -42.5625 C 34.5 -42.863281 34.144531 -43.015625 33.59375 -43.015625 C 33.03125 -43.015625 32.660156 -42.863281 32.484375 -42.5625 C 32.304688 -42.257812 32.21875 -41.625 32.21875 -40.65625 L 32.21875 -21.515625 C 32.21875 -20.753906 32.191406 -20.09375 32.140625 -19.53125 C 32.097656 -18.976562 32.007812 -18.472656 31.875 -18.015625 C 31.75 -17.554688 31.5625 -17.097656 31.3125 -16.640625 C 31.0625 -16.179688 30.757812 -15.675781 30.40625 -15.125 C 29.945312 -14.46875 29.71875 -13.960938 29.71875 -13.609375 C 29.71875 -12.796875 30.125 -12.390625 30.9375 -12.390625 C 31.738281 -12.390625 32.625 -13.328125 33.59375 -15.203125 C 34.101562 -16.160156 34.445312 -17.070312 34.625 -17.9375 C 34.800781 -18.800781 34.890625 -19.96875 34.890625 -21.4375 Z M 29.5625 -5.09375 C 29.007812 -4.84375 28.238281 -4.640625 27.25 -4.484375 C 26.257812 -4.328125 25.332031 -4.25 24.46875 -4.25 C 21.882812 -4.25 19.476562 -4.832031 17.25 -6 C 15.019531 -7.164062 13.171875 -8.8125 11.703125 -10.9375 C 11.148438 -11.695312 10.707031 -12.457031 10.375 -13.21875 C 10.039062 -13.976562 9.757812 -14.8125 9.53125 -15.71875 C 9.3125 -16.632812 9.160156 -17.648438 9.078125 -18.765625 C 9.003906 -19.878906 8.96875 -21.195312 8.96875 -22.71875 L 8.96875 -40.65625 C 8.96875 -41.625 8.878906 -42.257812 8.703125 -42.5625 C 8.523438 -42.863281 8.15625 -43.015625 7.59375 -43.015625 C 7.039062 -43.015625 6.6875 -42.863281 6.53125 -42.5625 C 6.382812 -42.257812 6.3125 -41.625 6.3125 -40.65625 L 6.3125 -22.875 C 6.3125 -21.050781 6.375 -19.46875 6.5 -18.125 C 6.625 -16.78125 6.828125 -15.5625 7.109375 -14.46875 C 7.390625 -13.382812 7.769531 -12.375 8.25 -11.4375 C 8.726562 -10.5 9.347656 -9.570312 10.109375 -8.65625 C 11.828125 -6.425781 13.976562 -4.691406 16.5625 -3.453125 C 19.144531 -2.210938 21.859375 -1.59375 24.703125 -1.59375 C 25.921875 -1.59375 27.132812 -1.71875 28.34375 -1.96875 C 29.5625 -2.226562 30.550781 -2.5625 31.3125 -2.96875 C 32.019531 -3.320312 32.375 -3.800781 32.375 -4.40625 C 32.375 -5.21875 32.019531 -5.625 31.3125 -5.625 C 30.957031 -5.625 30.675781 -5.546875 30.46875 -5.390625 Z M 29.5625 -5.09375 "/></g></g></g><g fill="#f4b0e5" fill-opacity="1"><g transform="translate(288.576478, 220.945779)"><g><path d="M 13.53125 0 C 11.445312 0 9.820312 -0.238281 8.65625 -0.71875 C 7.5 -1.195312 6.460938 -2.019531 5.546875 -3.1875 C 5.191406 -3.644531 4.910156 -4.078125 4.703125 -4.484375 C 4.503906 -4.890625 4.34375 -5.367188 4.21875 -5.921875 C 4.09375 -6.484375 4.015625 -7.15625 3.984375 -7.9375 C 3.960938 -8.726562 3.953125 -9.726562 3.953125 -10.9375 L 3.953125 -39.671875 C 3.953125 -40.890625 3.976562 -41.898438 4.03125 -42.703125 C 4.082031 -43.515625 4.179688 -44.210938 4.328125 -44.796875 C 4.484375 -45.378906 4.6875 -45.882812 4.9375 -46.3125 C 5.1875 -46.75 5.515625 -47.222656 5.921875 -47.734375 C 7.546875 -49.703125 9.953125 -50.6875 13.140625 -50.6875 L 19.6875 -50.6875 C 21.050781 -50.6875 22.203125 -50.671875 23.140625 -50.640625 C 24.078125 -50.617188 24.882812 -50.582031 25.5625 -50.53125 C 26.25 -50.488281 26.859375 -50.425781 27.390625 -50.34375 C 27.929688 -50.269531 28.476562 -50.179688 29.03125 -50.078125 C 30.75 -49.671875 32.316406 -49 33.734375 -48.0625 C 35.160156 -47.125 36.390625 -45.984375 37.421875 -44.640625 C 38.460938 -43.304688 39.257812 -41.816406 39.8125 -40.171875 C 40.375 -38.523438 40.65625 -36.785156 40.65625 -34.953125 C 40.65625 -33.484375 40.488281 -32.191406 40.15625 -31.078125 C 39.832031 -29.960938 39.210938 -28.644531 38.296875 -27.125 C 40.078125 -25.65625 41.457031 -23.859375 42.4375 -21.734375 C 43.425781 -19.609375 43.921875 -17.40625 43.921875 -15.125 C 43.921875 -10.613281 42.226562 -6.8125 38.84375 -3.71875 C 37.976562 -2.957031 37.175781 -2.335938 36.4375 -1.859375 C 35.707031 -1.378906 34.882812 -1 33.96875 -0.71875 C 33.0625 -0.4375 32.023438 -0.242188 30.859375 -0.140625 C 29.691406 -0.046875 28.296875 0 26.671875 0 Z M 22.578125 -31.078125 C 23.078125 -31.078125 23.441406 -31.085938 23.671875 -31.109375 C 23.898438 -31.140625 24.113281 -31.179688 24.3125 -31.234375 C 24.71875 -31.335938 25.0625 -31.550781 25.34375 -31.875 C 25.625 -32.207031 25.765625 -32.601562 25.765625 -33.0625 C 25.765625 -33.769531 25.507812 -34.273438 25 -34.578125 C 24.5 -34.878906 23.664062 -35.03125 22.5 -35.03125 L 20.671875 -35.03125 L 20.671875 -31.078125 Z M 23.40625 -15.578125 C 24.113281 -15.578125 24.609375 -15.578125 24.890625 -15.578125 C 25.171875 -15.578125 25.410156 -15.628906 25.609375 -15.734375 C 26.617188 -15.878906 27.125 -16.507812 27.125 -17.625 C 27.125 -18.4375 26.84375 -18.992188 26.28125 -19.296875 C 25.726562 -19.609375 24.769531 -19.765625 23.40625 -19.765625 L 20.671875 -19.765625 L 20.671875 -15.578125 Z M 22.046875 -40.578125 C 21.023438 -40.578125 20.347656 -40.5 20.015625 -40.34375 C 19.691406 -40.195312 19.53125 -39.847656 19.53125 -39.296875 C 19.53125 -38.734375 19.691406 -38.363281 20.015625 -38.1875 C 20.347656 -38.007812 21.023438 -37.921875 22.046875 -37.921875 L 22.578125 -37.921875 C 26.679688 -37.921875 28.734375 -36.273438 28.734375 -32.984375 L 28.65625 -32.140625 C 28.65625 -31.742188 28.769531 -31.414062 29 -31.15625 C 29.226562 -30.90625 29.539062 -30.78125 29.9375 -30.78125 C 30.957031 -30.78125 31.46875 -31.640625 31.46875 -33.359375 C 31.46875 -34.472656 31.1875 -35.550781 30.625 -36.59375 C 30.070312 -37.632812 29.285156 -38.507812 28.265625 -39.21875 C 27.554688 -39.675781 26.742188 -40.015625 25.828125 -40.234375 C 24.921875 -40.460938 23.8125 -40.578125 22.5 -40.578125 Z M 24.625 -22.640625 C 28.21875 -22.640625 30.066406 -21.097656 30.171875 -18.015625 C 30.222656 -16.898438 30.335938 -16.175781 30.515625 -15.84375 C 30.691406 -15.519531 31.054688 -15.359375 31.609375 -15.359375 C 32.523438 -15.359375 32.984375 -16.140625 32.984375 -17.703125 C 32.984375 -19.785156 32.328125 -21.535156 31.015625 -22.953125 C 30.148438 -23.816406 29.1875 -24.410156 28.125 -24.734375 C 27.0625 -25.066406 25.460938 -25.234375 23.328125 -25.234375 L 22.046875 -25.234375 C 21.078125 -25.234375 20.414062 -25.144531 20.0625 -24.96875 C 19.707031 -24.789062 19.53125 -24.445312 19.53125 -23.9375 C 19.53125 -23.070312 20.0625 -22.640625 21.125 -22.640625 Z M 34.734375 -5.390625 C 34.734375 -6.253906 34.378906 -6.6875 33.671875 -6.6875 C 33.566406 -6.6875 33.410156 -6.660156 33.203125 -6.609375 C 33.003906 -6.554688 32.648438 -6.40625 32.140625 -6.15625 C 31.535156 -5.90625 30.953125 -5.738281 30.390625 -5.65625 C 29.835938 -5.582031 29.003906 -5.546875 27.890625 -5.546875 L 18.390625 -5.546875 C 17.484375 -5.546875 16.875 -5.457031 16.5625 -5.28125 C 16.257812 -5.101562 16.109375 -4.738281 16.109375 -4.1875 C 16.109375 -3.320312 16.640625 -2.890625 17.703125 -2.890625 L 28.203125 -2.890625 C 30.273438 -2.890625 31.878906 -3.113281 33.015625 -3.5625 C 34.160156 -4.019531 34.734375 -4.628906 34.734375 -5.390625 Z M 9.421875 -46.890625 C 9.015625 -46.890625 8.660156 -46.738281 8.359375 -46.4375 C 8.054688 -46.132812 7.90625 -45.78125 7.90625 -45.375 C 7.90625 -44.96875 8.054688 -44.613281 8.359375 -44.3125 C 8.660156 -44.007812 9.015625 -43.859375 9.421875 -43.859375 C 9.828125 -43.859375 10.179688 -44.007812 10.484375 -44.3125 C 10.785156 -44.613281 10.9375 -44.96875 10.9375 -45.375 C 10.9375 -45.78125 10.785156 -46.132812 10.484375 -46.4375 C 10.179688 -46.738281 9.828125 -46.890625 9.421875 -46.890625 Z M 9.5 -40.65625 C 9.5 -41.625 9.421875 -42.257812 9.265625 -42.5625 C 9.117188 -42.863281 8.765625 -43.015625 8.203125 -43.015625 C 7.648438 -43.015625 7.285156 -42.847656 7.109375 -42.515625 C 6.929688 -42.191406 6.84375 -41.570312 6.84375 -40.65625 L 6.84375 -10.03125 C 6.84375 -8.101562 6.957031 -6.8125 7.1875 -6.15625 C 7.414062 -5.5 7.859375 -5.171875 8.515625 -5.171875 C 9.367188 -5.171875 9.796875 -5.578125 9.796875 -6.390625 C 9.796875 -6.742188 9.742188 -7.082031 9.640625 -7.40625 C 9.546875 -7.738281 9.5 -8.335938 9.5 -9.203125 Z M 9.5 -40.65625 "/></g></g></g></svg>